<svg id="svg" version="1.1" xmlns="http://www.w3.org/2000/svg" xmlns:xlink="http://www.w3.org/1999/xlink" width="400" height="394.81481481481484" viewBox="0, 0, 400,394.81481481481484"><g id="svgg"><path id="path0" d="M183.625 107.130 C 183.310 107.682,183.125 109.761,183.076 113.293 C 182.990 119.497,182.958 119.630,181.538 119.630 C 179.521 119.630,179.461 119.937,179.259 131.260 L 179.074 141.667 177.593 141.600 C 169.325 141.231,169.538 141.212,168.204 142.407 C 163.155 146.928,166.165 152.271,174.259 153.156 C 175.481 153.290,177.106 153.558,177.870 153.751 L 179.259 154.103 179.259 185.125 C 179.259 208.760,179.153 216.254,178.815 216.593 C 178.490 216.917,175.549 217.037,167.897 217.037 L 157.424 217.037 156.818 217.963 C 156.256 218.821,156.256 218.957,156.818 219.815 L 157.424 220.741 198.470 220.741 C 244.655 220.741,241.524 220.934,240.374 218.158 L 239.910 217.037 232.351 217.037 C 223.411 217.037,224.076 217.568,225.321 211.426 C 230.203 187.334,227.069 163.655,216.874 147.593 C 216.228 146.574,215.588 145.556,215.452 145.329 C 215.316 145.103,215.784 144.103,216.493 143.107 C 220.418 137.588,218.606 134.819,211.068 134.816 C 206.278 134.815,206.905 135.069,202.407 131.303 C 199.707 129.041,194.116 125.398,190.430 123.497 C 187.015 121.737,187.037 121.798,187.037 113.891 C 187.037 108.539,186.939 107.363,186.455 106.878 C 185.602 106.025,184.183 106.151,183.625 107.130 M191.845 128.890 C 192.358 129.241,193.693 130.093,194.811 130.783 C 199.821 133.873,200.127 134.815,196.120 134.815 C 192.457 134.815,192.430 134.798,190.739 131.335 C 188.822 127.413,189.026 126.963,191.845 128.890 M186.568 132.138 C 188.098 135.234,188.021 135.690,185.823 136.567 C 183.504 137.491,183.333 137.224,183.333 132.666 C 183.333 127.069,184.008 126.959,186.568 132.138 M197.294 139.181 C 199.475 140.568,203.570 153.389,205.066 163.519 C 205.870 168.957,205.983 191.473,205.238 197.593 C 203.130 214.893,202.705 216.786,200.892 216.963 C 199.083 217.140,198.883 216.569,199.287 212.394 C 202.107 183.239,200.726 159.941,195.140 142.452 C 194.068 139.097,194.981 137.711,197.294 139.181 M213.704 139.597 C 213.704 140.823,211.636 142.222,209.825 142.222 C 208.182 142.222,205.578 140.121,206.125 139.237 C 206.593 138.480,213.704 138.817,213.704 139.597 M189.903 140.093 C 190.336 140.643,191.852 145.594,191.852 146.459 C 191.852 147.009,189.268 148.394,185.300 149.972 C 183.507 150.685,183.333 150.346,183.333 146.135 C 183.333 141.774,183.235 141.936,186.671 140.609 C 189.550 139.498,189.448 139.514,189.903 140.093 M174.815 145.565 C 179.455 146.288,179.259 146.190,179.259 147.785 C 179.259 149.670,179.259 149.670,174.811 149.091 C 170.856 148.577,170.000 148.136,170.000 146.614 C 170.000 145.261,171.193 145.002,174.815 145.565 M206.795 145.741 C 207.526 146.046,208.721 146.296,209.450 146.296 C 210.866 146.296,212.331 147.477,212.709 148.922 C 212.969 149.919,212.494 150.056,209.225 149.925 L 206.481 149.815 205.863 147.963 C 204.856 144.948,204.863 144.933,206.795 145.741 M194.033 154.562 C 194.960 159.909,195.921 166.967,195.924 168.445 L 195.926 170.039 193.611 171.091 C 185.697 174.690,184.360 175.232,183.868 175.043 C 183.401 174.864,183.336 173.404,183.420 165.107 L 183.519 155.380 184.630 154.825 C 192.915 150.684,193.359 150.672,194.033 154.562 M210.442 154.569 C 211.082 155.209,212.374 160.181,212.092 160.917 C 211.778 161.734,209.380 161.670,208.960 160.833 C 208.465 159.846,207.684 154.896,207.954 154.459 C 208.292 153.913,209.855 153.982,210.442 154.569 M216.915 156.267 C 223.694 171.865,225.280 190.779,221.437 210.179 C 220.073 217.063,219.964 217.264,217.902 216.705 C 216.626 216.358,216.620 216.158,217.692 209.444 C 220.620 191.118,220.068 173.715,216.085 158.704 C 214.804 153.874,215.275 152.492,216.915 156.267 M213.287 165.890 C 213.568 166.067,213.818 166.856,213.843 167.643 L 213.889 169.074 211.852 169.074 L 209.815 169.074 209.696 167.835 C 209.491 165.692,211.369 164.674,213.287 165.890 M214.944 174.440 C 215.337 176.406,214.983 176.712,212.454 176.591 L 210.185 176.481 210.071 174.907 L 209.957 173.333 212.340 173.333 C 214.689 173.333,214.725 173.349,214.944 174.440 M196.487 175.648 C 196.599 176.106,196.644 180.059,196.586 184.431 L 196.481 192.380 195.556 192.851 C 191.815 194.758,185.531 197.508,184.537 197.674 L 183.333 197.875 183.333 189.338 C 183.333 180.963,183.442 179.630,184.121 179.630 C 184.308 179.630,185.498 179.129,186.767 178.516 C 189.487 177.203,195.174 174.902,195.826 174.851 C 196.077 174.831,196.374 175.190,196.487 175.648 M215.403 181.667 C 216.024 184.140,213.384 185.489,210.716 184.061 C 210.009 183.683,209.684 181.551,210.247 180.988 C 211.031 180.204,215.173 180.749,215.403 181.667 M215.370 190.185 L 215.370 191.667 212.715 191.775 C 209.785 191.894,209.326 191.524,209.844 189.461 C 210.082 188.511,210.150 188.490,212.729 188.596 L 215.370 188.704 215.370 190.185 M215.123 196.982 C 215.452 199.307,215.027 199.671,212.119 199.553 L 209.444 199.444 209.323 198.164 C 209.102 195.841,214.797 194.680,215.123 196.982 M196.025 201.704 C 195.921 206.595,195.040 216.195,194.659 216.576 C 194.192 217.045,184.955 217.138,184.104 216.682 C 183.164 216.179,182.886 203.763,183.796 202.949 C 184.497 202.322,195.316 197.444,195.741 197.563 C 195.966 197.626,196.077 199.254,196.025 201.704 M214.074 205.140 C 214.074 207.058,213.472 207.469,210.865 207.334 C 206.831 207.125,207.419 203.704,211.489 203.704 L 214.074 203.704 214.074 205.140 M212.363 211.424 C 212.993 211.476,213.035 211.700,212.806 213.796 C 212.508 216.531,212.012 217.039,209.651 217.031 C 207.161 217.023,206.896 216.739,207.190 214.390 C 207.581 211.260,207.938 211.055,212.363 211.424 M229.167 236.696 C 228.517 237.075,228.323 238.319,228.743 239.414 C 228.900 239.822,229.450 240.000,230.556 240.000 C 232.694 240.000,232.593 239.260,232.593 254.815 C 232.593 269.553,232.586 269.630,231.232 269.630 C 229.762 269.630,228.888 270.292,228.895 271.402 C 228.905 273.312,229.072 273.362,235.028 273.251 L 240.556 273.148 240.556 271.679 C 240.556 270.280,240.484 270.189,239.074 269.794 L 237.593 269.380 237.484 266.322 L 237.376 263.265 238.698 262.018 C 240.558 260.265,240.797 260.517,246.065 269.792 C 247.962 273.134,248.711 273.704,251.205 273.704 C 255.509 273.704,256.630 270.589,252.587 269.863 C 251.384 269.647,244.074 259.293,244.074 257.806 C 244.074 256.962,250.551 251.481,251.549 251.481 C 253.206 251.481,253.862 248.991,252.450 248.061 C 251.816 247.643,244.119 247.727,243.309 248.161 C 242.366 248.666,242.381 250.283,243.339 251.302 C 244.053 252.063,244.057 252.127,243.431 252.808 C 241.657 254.740,238.054 257.764,237.751 257.576 C 237.553 257.454,237.407 253.053,237.407 247.213 C 237.407 237.557,237.373 237.044,236.691 236.680 C 235.772 236.188,230.018 236.200,229.167 236.696 M174.915 238.809 C 171.667 239.317,172.245 244.444,175.550 244.444 C 177.508 244.444,178.519 243.455,178.519 241.539 C 178.519 239.530,177.113 238.466,174.915 238.809 M267.003 247.393 C 259.580 248.377,255.656 256.847,260.263 261.938 C 260.831 262.566,260.785 262.685,259.532 263.833 C 257.461 265.729,257.214 268.730,258.991 270.386 L 259.801 271.140 258.708 273.070 C 255.242 279.195,259.154 284.099,267.734 284.386 C 276.036 284.664,280.870 281.556,280.894 275.926 C 280.919 270.305,277.414 268.148,268.258 268.148 C 263.815 268.148,262.593 267.834,262.593 266.690 C 262.593 265.687,264.405 265.185,268.030 265.185 C 277.219 265.185,280.931 260.606,278.837 251.852 C 278.745 251.470,279.051 251.257,279.815 251.171 C 281.240 251.010,281.852 250.491,281.852 249.444 C 281.852 248.078,281.173 247.880,275.741 247.662 C 272.889 247.547,270.222 247.378,269.815 247.286 C 269.407 247.194,268.142 247.242,267.003 247.393 M149.409 247.810 C 145.721 248.427,143.947 249.459,144.221 250.828 C 144.596 252.700,144.861 252.781,148.417 252.099 C 155.174 250.805,157.949 252.060,157.693 256.296 C 157.577 258.221,157.669 258.187,151.031 258.803 C 145.059 259.357,142.241 261.789,142.228 266.401 C 142.210 272.891,148.990 275.945,155.522 272.390 L 157.452 271.340 158.322 272.429 C 159.323 273.682,164.420 274.059,165.723 272.978 C 167.023 271.899,166.332 269.831,164.630 269.703 C 162.278 269.526,162.222 269.314,162.222 260.602 C 162.222 248.499,159.792 246.072,149.409 247.810 M197.119 248.370 L 194.422 249.314 193.785 248.530 C 193.201 247.812,192.839 247.755,189.444 247.855 L 185.741 247.963 185.629 249.697 L 185.517 251.430 187.157 251.676 C 189.240 251.989,189.259 252.105,189.259 264.104 C 189.259 273.672,189.186 273.369,191.514 273.401 C 193.906 273.434,193.884 273.524,193.932 263.471 C 193.980 253.200,193.758 253.935,197.219 252.569 C 200.122 251.423,203.061 251.416,204.198 252.551 C 204.965 253.317,205.008 253.743,205.185 262.391 C 205.416 273.642,205.369 273.529,209.774 273.500 C 212.931 273.479,213.796 273.003,213.796 271.287 C 213.796 270.062,213.193 269.643,211.418 269.635 L 210.059 269.630 209.937 260.833 C 209.827 252.917,209.741 251.891,209.074 250.574 C 207.450 247.366,202.561 246.464,197.119 248.370 M118.730 248.360 C 118.316 248.774,118.150 249.655,118.153 251.415 C 118.161 255.249,118.314 255.556,120.221 255.556 C 121.933 255.556,122.026 255.440,122.304 252.963 C 122.428 251.854,123.726 251.597,128.238 251.788 C 131.759 251.938,132.196 250.952,123.856 261.673 C 117.550 269.778,117.369 270.060,117.479 271.582 L 117.593 273.148 127.778 273.148 L 137.963 273.148 137.963 269.630 L 137.963 266.111 136.241 266.000 L 134.519 265.888 134.262 267.759 L 134.005 269.630 129.039 269.630 C 126.308 269.630,124.074 269.500,124.074 269.342 C 124.074 268.896,124.915 267.753,130.905 260.067 C 140.725 247.466,140.800 247.778,127.963 247.778 C 120.592 247.778,119.226 247.864,118.730 248.360 M171.574 248.023 C 170.530 248.444,171.024 251.119,172.222 251.537 C 173.406 251.950,173.611 253.327,173.454 259.815 C 173.163 271.899,173.856 273.925,178.173 273.616 C 181.264 273.395,181.929 272.939,181.778 271.143 C 181.672 269.883,181.590 269.809,180.190 269.695 C 178.113 269.526,178.160 269.784,178.154 258.466 C 178.149 249.475,178.077 248.200,177.562 248.003 C 176.871 247.737,172.243 247.753,171.574 248.023 M271.844 251.760 C 274.541 253.115,275.574 256.343,274.089 258.778 C 271.948 262.290,265.339 262.230,263.858 258.687 C 261.786 253.728,266.913 249.282,271.844 251.760 M157.192 261.706 C 158.146 262.072,158.011 266.434,157.014 267.430 C 153.619 270.825,147.407 270.206,147.407 266.472 C 147.407 263.166,148.442 262.307,152.963 261.860 C 154.491 261.709,155.935 261.562,156.173 261.533 C 156.411 261.505,156.870 261.583,157.192 261.706 M219.057 268.687 C 216.401 271.343,220.327 275.669,223.172 273.222 C 224.597 271.996,224.702 269.553,223.376 268.479 C 222.137 267.476,220.174 267.570,219.057 268.687 M273.929 272.697 C 277.236 274.425,276.311 278.993,272.442 280.044 C 265.127 282.032,259.704 277.397,264.005 272.833 C 265.193 271.572,271.608 271.484,273.929 272.697 " stroke="none" fill="#261a08" fill-rule="evenodd"></path><path id="path1" d="M0.000 197.407 L 0.000 394.815 200.000 394.815 L 400.000 394.815 400.000 197.407 L 400.000 0.000 200.000 0.000 L 0.000 0.000 0.000 197.407 M186.455 106.878 C 186.939 107.363,187.037 108.539,187.037 113.891 C 187.037 121.798,187.015 121.737,190.430 123.497 C 194.116 125.398,199.707 129.041,202.407 131.303 C 206.905 135.069,206.278 134.815,211.068 134.816 C 218.606 134.819,220.418 137.588,216.493 143.107 C 215.784 144.103,215.316 145.103,215.452 145.329 C 215.588 145.556,216.228 146.574,216.874 147.593 C 227.069 163.655,230.203 187.334,225.321 211.426 C 224.076 217.568,223.411 217.037,232.351 217.037 L 239.910 217.037 240.374 218.158 C 241.524 220.934,244.655 220.741,198.470 220.741 L 157.424 220.741 156.818 219.815 C 156.256 218.957,156.256 218.821,156.818 217.963 L 157.424 217.037 167.897 217.037 C 175.549 217.037,178.490 216.917,178.815 216.593 C 179.153 216.254,179.259 208.760,179.259 185.125 L 179.259 154.103 177.870 153.751 C 177.106 153.558,175.481 153.290,174.259 153.156 C 166.165 152.271,163.155 146.928,168.204 142.407 C 169.538 141.212,169.325 141.231,177.593 141.600 L 179.074 141.667 179.259 131.260 C 179.461 119.937,179.521 119.630,181.538 119.630 C 182.958 119.630,182.990 119.497,183.076 113.293 C 183.168 106.655,184.225 104.648,186.455 106.878 M189.259 128.018 C 189.259 128.777,192.289 134.391,192.806 134.589 C 193.724 134.942,198.821 134.854,199.051 134.482 C 199.316 134.052,197.396 132.377,194.811 130.783 C 193.693 130.093,192.358 129.241,191.845 128.890 C 190.705 128.111,189.259 127.623,189.259 128.018 M183.581 128.394 C 183.028 128.947,183.308 136.680,183.889 136.903 C 184.603 137.177,187.092 136.189,187.561 135.446 C 188.227 134.390,184.388 127.587,183.581 128.394 M194.444 139.581 C 194.444 139.962,194.757 141.254,195.140 142.452 C 200.726 159.941,202.107 183.239,199.287 212.394 C 198.883 216.569,199.083 217.140,200.892 216.963 C 202.705 216.786,203.130 214.893,205.238 197.593 C 205.983 191.473,205.870 168.957,205.066 163.519 C 203.570 153.389,199.475 140.568,197.294 139.181 C 196.353 138.583,194.444 138.851,194.444 139.581 M206.125 139.237 C 205.578 140.121,208.182 142.222,209.825 142.222 C 211.636 142.222,213.704 140.823,213.704 139.597 C 213.704 138.817,206.593 138.480,206.125 139.237 M186.671 140.609 C 183.235 141.936,183.333 141.774,183.333 146.135 C 183.333 150.346,183.507 150.685,185.300 149.972 C 189.268 148.394,191.852 147.009,191.852 146.459 C 191.852 145.594,190.336 140.643,189.903 140.093 C 189.448 139.514,189.550 139.498,186.671 140.609 M170.648 145.585 C 169.880 146.033,169.812 147.008,170.485 147.929 C 170.967 148.588,178.229 149.852,178.956 149.403 C 179.815 148.872,179.262 146.356,178.241 146.148 C 173.715 145.226,171.542 145.065,170.648 145.585 M205.215 145.648 C 205.231 145.903,205.523 146.944,205.863 147.963 L 206.481 149.815 209.225 149.925 C 212.494 150.056,212.969 149.919,212.709 148.922 C 212.331 147.477,210.866 146.296,209.450 146.296 C 208.721 146.296,207.526 146.046,206.795 145.741 C 205.187 145.069,205.178 145.068,205.215 145.648 M189.259 152.702 C 187.324 153.564,185.241 154.519,184.630 154.825 L 183.519 155.380 183.420 165.107 C 183.336 173.404,183.401 174.864,183.868 175.043 C 184.360 175.232,185.697 174.690,193.611 171.091 L 195.926 170.039 195.924 168.445 C 195.921 166.967,194.960 159.909,194.033 154.562 C 193.398 150.895,193.354 150.878,189.259 152.702 M207.954 154.459 C 207.684 154.896,208.465 159.846,208.960 160.833 C 209.380 161.670,211.778 161.734,212.092 160.917 C 212.374 160.181,211.082 155.209,210.442 154.569 C 209.855 153.982,208.292 153.913,207.954 154.459 M215.290 155.190 C 215.403 155.900,215.761 157.481,216.085 158.704 C 220.068 173.715,220.620 191.118,217.692 209.444 C 216.620 216.158,216.626 216.358,217.902 216.705 C 219.964 217.264,220.073 217.063,221.437 210.179 C 225.280 190.779,223.694 171.865,216.915 156.267 C 216.012 154.188,215.026 153.535,215.290 155.190 M209.777 166.076 C 209.667 166.362,209.631 167.154,209.696 167.835 L 209.815 169.074 211.852 169.074 L 213.889 169.074 213.843 167.643 C 213.781 165.716,210.413 164.418,209.777 166.076 M210.071 174.907 L 210.185 176.481 212.454 176.591 C 214.983 176.712,215.337 176.406,214.944 174.440 C 214.725 173.349,214.689 173.333,212.340 173.333 L 209.957 173.333 210.071 174.907 M192.222 176.145 C 190.491 176.837,188.036 177.904,186.767 178.516 C 185.498 179.129,184.308 179.630,184.121 179.630 C 183.442 179.630,183.333 180.963,183.333 189.338 L 183.333 197.875 184.537 197.674 C 185.531 197.508,191.815 194.758,195.556 192.851 L 196.481 192.380 196.586 184.431 C 196.730 173.535,197.082 174.203,192.222 176.145 M210.247 180.988 C 209.684 181.551,210.009 183.683,210.716 184.061 C 213.384 185.489,216.024 184.140,215.403 181.667 C 215.173 180.749,211.031 180.204,210.247 180.988 M209.844 189.461 C 209.326 191.524,209.785 191.894,212.715 191.775 L 215.370 191.667 215.370 190.185 L 215.370 188.704 212.729 188.596 C 210.150 188.490,210.082 188.511,209.844 189.461 M209.877 196.390 C 209.396 196.742,209.236 197.253,209.323 198.164 L 209.444 199.444 212.119 199.553 C 215.027 199.671,215.452 199.307,215.123 196.982 C 214.974 195.924,211.111 195.488,209.877 196.390 M189.815 199.997 C 186.759 201.393,184.051 202.721,183.796 202.949 C 182.886 203.763,183.164 216.179,184.104 216.682 C 184.955 217.138,194.192 217.045,194.659 216.576 C 195.433 215.800,196.459 197.765,195.741 197.563 C 195.537 197.506,192.870 198.601,189.815 199.997 M208.680 204.592 C 208.143 206.731,208.527 207.213,210.865 207.334 C 213.472 207.469,214.074 207.058,214.074 205.140 L 214.074 203.704 211.489 203.704 C 209.069 203.704,208.889 203.761,208.680 204.592 M208.889 211.413 C 207.417 211.641,206.250 215.940,207.452 216.702 C 208.220 217.188,211.255 217.102,211.947 216.574 C 212.928 215.825,213.277 211.500,212.363 211.424 C 210.659 211.282,209.752 211.279,208.889 211.413 M236.691 236.680 C 237.373 237.044,237.407 237.557,237.407 247.213 C 237.407 253.053,237.553 257.454,237.751 257.576 C 238.054 257.764,241.657 254.740,243.431 252.808 C 244.057 252.127,244.053 252.063,243.339 251.302 C 242.381 250.283,242.366 248.666,243.309 248.161 C 244.119 247.727,251.816 247.643,252.450 248.061 C 253.862 248.991,253.206 251.481,251.549 251.481 C 250.551 251.481,244.074 256.962,244.074 257.806 C 244.074 259.293,251.384 269.647,252.587 269.863 C 256.630 270.589,255.509 273.704,251.205 273.704 C 248.711 273.704,247.962 273.134,246.065 269.792 C 240.797 260.517,240.558 260.265,238.698 262.018 L 237.376 263.265 237.484 266.322 L 237.593 269.380 239.074 269.794 C 240.484 270.189,240.556 270.280,240.556 271.679 L 240.556 273.148 235.028 273.251 C 229.072 273.362,228.905 273.312,228.895 271.402 C 228.888 270.292,229.762 269.630,231.232 269.630 C 232.586 269.630,232.593 269.553,232.593 254.815 C 232.593 239.260,232.694 240.000,230.556 240.000 C 228.879 240.000,228.519 239.637,228.519 237.951 C 228.519 236.425,234.482 235.498,236.691 236.680 M177.870 239.554 C 178.784 240.345,178.731 242.751,177.778 243.704 C 175.267 246.215,171.149 242.675,173.341 239.890 C 174.436 238.497,176.474 238.346,177.870 239.554 M275.741 247.662 C 281.173 247.880,281.852 248.078,281.852 249.444 C 281.852 250.491,281.240 251.010,279.815 251.171 C 279.051 251.257,278.745 251.470,278.837 251.852 C 280.931 260.606,277.219 265.185,268.030 265.185 C 264.405 265.185,262.593 265.687,262.593 266.690 C 262.593 267.834,263.815 268.148,268.258 268.148 C 277.414 268.148,280.919 270.305,280.894 275.926 C 280.870 281.556,276.036 284.664,267.734 284.386 C 259.154 284.099,255.242 279.195,258.708 273.070 L 259.801 271.140 258.991 270.386 C 257.214 268.730,257.461 265.729,259.532 263.833 C 260.785 262.685,260.831 262.566,260.263 261.938 C 257.925 259.354,257.973 253.581,260.357 250.689 C 262.149 248.515,267.201 246.697,269.815 247.286 C 270.222 247.378,272.889 247.547,275.741 247.662 M156.586 247.791 C 161.515 248.928,162.222 250.536,162.222 260.602 C 162.222 269.314,162.278 269.526,164.630 269.703 C 166.332 269.831,167.023 271.899,165.723 272.978 C 164.420 274.059,159.323 273.682,158.322 272.429 L 157.452 271.340 155.522 272.390 C 148.990 275.945,142.210 272.891,142.228 266.401 C 142.241 261.789,145.059 259.357,151.031 258.803 C 157.669 258.187,157.577 258.221,157.693 256.296 C 157.949 252.060,155.174 250.805,148.417 252.099 C 144.861 252.781,144.596 252.700,144.221 250.828 C 143.758 248.512,151.484 246.615,156.586 247.791 M206.701 248.259 C 209.581 249.761,209.795 250.593,209.937 260.833 L 210.059 269.630 211.418 269.635 C 213.193 269.643,213.796 270.062,213.796 271.287 C 213.796 273.003,212.931 273.479,209.774 273.500 C 205.369 273.529,205.416 273.642,205.185 262.391 C 205.008 253.743,204.965 253.317,204.198 252.551 C 203.061 251.416,200.122 251.423,197.219 252.569 C 193.758 253.935,193.980 253.200,193.932 263.471 C 193.884 273.524,193.906 273.434,191.514 273.401 C 189.186 273.369,189.259 273.672,189.259 264.104 C 189.259 252.105,189.240 251.989,187.157 251.676 L 185.517 251.430 185.629 249.697 L 185.741 247.963 189.444 247.855 C 192.839 247.755,193.201 247.812,193.785 248.530 L 194.422 249.314 197.119 248.370 C 200.745 247.100,204.398 247.057,206.701 248.259 M137.196 248.360 C 138.714 249.878,138.423 250.421,130.905 260.067 C 124.915 267.753,124.074 268.896,124.074 269.342 C 124.074 269.500,126.308 269.630,129.039 269.630 L 134.005 269.630 134.262 267.759 L 134.519 265.888 136.241 266.000 L 137.963 266.111 137.963 269.630 L 137.963 273.148 127.778 273.148 L 117.593 273.148 117.479 271.582 C 117.369 270.060,117.550 269.778,123.856 261.673 C 132.196 250.952,131.759 251.938,128.238 251.788 C 123.726 251.597,122.428 251.854,122.304 252.963 C 122.026 255.440,121.933 255.556,120.221 255.556 C 118.314 255.556,118.161 255.249,118.153 251.415 C 118.145 247.639,117.772 247.778,127.963 247.778 C 135.333 247.778,136.700 247.864,137.196 248.360 M177.562 248.003 C 178.077 248.200,178.149 249.475,178.154 258.466 C 178.160 269.784,178.113 269.526,180.190 269.695 C 181.590 269.809,181.672 269.883,181.778 271.143 C 181.929 272.939,181.264 273.395,178.173 273.616 C 173.856 273.925,173.163 271.899,173.454 259.815 C 173.611 253.327,173.406 251.950,172.222 251.537 C 171.024 251.119,170.530 248.444,171.574 248.023 C 172.243 247.753,176.871 247.737,177.562 248.003 M266.050 251.875 C 263.579 253.098,262.685 255.879,263.858 258.687 C 265.339 262.230,271.948 262.290,274.089 258.778 C 276.897 254.173,271.233 249.310,266.050 251.875 M152.963 261.860 C 148.442 262.307,147.407 263.166,147.407 266.472 C 147.407 270.206,153.619 270.825,157.014 267.430 C 158.613 265.831,157.970 261.318,156.173 261.533 C 155.935 261.562,154.491 261.709,152.963 261.860 M223.376 268.479 C 224.702 269.553,224.597 271.996,223.172 273.222 C 220.327 275.669,216.401 271.343,219.057 268.687 C 220.174 267.570,222.137 267.476,223.376 268.479 M264.005 272.833 C 260.589 276.458,262.452 279.886,268.043 280.262 C 274.056 280.667,277.141 278.272,275.551 274.433 C 274.478 271.843,266.040 270.673,264.005 272.833 " stroke="none" fill="#fbd304" fill-rule="evenodd"></path></g></svg>